<svg width="304" height="166" viewBox="0 0 304 166" fill="none" xmlns="http://www.w3.org/2000/svg">
<g clip-path="url(#clip0_58_81)">
<path d="M51.9 30.8H221.36C249.94 30.8 273.14 54 273.14 82.58C273.14 111.29 249.83 134.6 221.12 134.6H51.9C23.26 134.6 0 111.35 0 82.7C0 54.06 23.26 30.8 51.9 30.8Z" fill="white"/>
<path d="M58.04 85.28C58.93 89.51 55.53 94.67 52.14 98.45C62.85 98.33 71.57 89.62 71.57 78.88C71.57 68.14 62.81 59.31 52 59.31C41.19 59.31 32.43 68.07 32.43 78.88C32.43 89.69 41.15 98.33 51.86 98.45C48.47 94.67 45.07 89.51 45.96 85.28C46.68 80.99 49.87 79.58 52 79.61C54.12 79.57 57.31 80.98 58.04 85.28ZM79.54 82.7C79.54 97.91 67.21 110.23 52.01 110.23C36.81 110.23 24.48 97.9 24.48 82.7C24.48 67.5 36.81 55.17 52.01 55.17C67.21 55.17 79.54 67.5 79.54 82.7Z" fill="#FF0000"/>
<path d="M164.27 74.7C158.74 74.7 156.37 77.65 156.37 84.43C156.33 91.22 158.84 94.3 164.31 94.3C169.78 94.3 172.12 91.22 172.12 84.39C172.12 77.56 169.65 74.69 164.27 74.69M164.68 99.18C160.53 99.18 156.55 98.14 154.08 96.36C150.93 94.14 149.2 89.97 149.2 84.66C149.2 74.66 154.08 69.83 164.22 69.83C174.36 69.83 179.24 74.7 179.24 84.87C179.24 94.27 174.26 99.18 164.68 99.18Z" fill="#FF0000"/>
<path d="M198.47 93.51C194.49 93.51 193.18 93.26 192.1 92.36C191.06 91.45 190.79 90.83 190.66 88.03V73.58C190.66 72.11 189.42 70.92 187.88 70.89H184.21V86.37C184.21 91.2 184.69 93.34 186.34 95.25C188.21 97.44 190.98 98.43 195.36 98.43H204.03V93.52H198.47V93.51Z" fill="#FF0000"/>
<path d="M229.14 87.15L233.26 77.49L237.38 87.15H229.14ZM236.81 70.89H232.45C230.76 70.93 229.33 71.91 228.7 73.3L217.78 98.43H222.2C223.92 98.42 225.4 97.42 226.03 96L227.75 92.03H238.76L240.5 96.04C241.15 97.44 242.61 98.42 244.31 98.43H248.77L236.81 70.9V70.89Z" fill="#FF0000"/>
<path d="M210.83 70.89C209.31 70.92 208.09 72.09 208.06 73.54V98.42H211.65C213.18 98.4 214.42 97.23 214.45 95.78V70.89H210.83Z" fill="#FF0000"/>
<path d="M114.29 70.89C112.6 70.92 111.16 71.91 110.53 73.3L103.78 90.25L96.56 73.33C95.93 71.91 94.47 70.92 92.77 70.89H88.36L100.54 98.42H104.05C105.7 98.39 107.12 97.44 107.77 96.09L119.17 70.88H114.29V70.89Z" fill="#FF0000"/>
<path d="M120.78 84.88C120.78 87.59 121.4 94.89 128.01 97.59C129.52 98.18 131.2 98.42 133.6 98.42H144.52V93.51H136.12C132.11 93.46 129.91 92.64 128.84 90.45C128.43 89.6 128.18 88.56 128.06 87.27V87.03H143.83V82.29H128.06V82.05C128.18 80.76 128.42 79.71 128.84 78.87C129.91 76.68 132.11 75.87 136.12 75.81H144.52V70.9H133.6C131.2 70.9 129.52 71.14 128.01 71.73C121.4 74.44 120.78 81.73 120.78 84.44V84.89V84.88Z" fill="#FF0000"/>
</g>
<defs>
<clipPath id="clip0_58_81">
<rect width="303.97" height="165.39" fill="white"/>
</clipPath>
</defs>
</svg>
